<svg xmlns="http://www.w3.org/2000/svg" data-name="Layer 1" viewBox="0 0 48 48" x="0px" y="0px"><title>superhero solid icons</title><path fill="#2C8EBB" d="M21.64,29.61C15.06,22.33,8.58,16,5.14,13.44a.23.23,0,0,0-.29,0,.25.25,0,0,0,0,.29c2.19,3.69,7.85,10.77,14.43,18S32.28,45.41,35.72,48a.19.19,0,0,0,.14,0,.25.25,0,0,0,.16-.06.23.23,0,0,0,0-.29C33.88,44,28.21,36.89,21.64,29.61Z"/><path fill="#2C8EBB" d="M25.48,21C18.9,13.76,12.43,7.41,9,4.86a.24.24,0,0,0-.3,0,.23.23,0,0,0,0,.29c2.19,3.68,7.85,10.77,14.42,18s13,13.63,16.5,16.17a.24.24,0,0,0,.14,0,.22.22,0,0,0,.15-.06.25.25,0,0,0,0-.29C37.72,35.4,32.06,28.31,25.48,21Z"/><path fill="#2C8EBB" d="M43.2,30c-1.92-3.22-6.87-9.42-12.63-15.8S19.14,2.27,16.12.05a.23.23,0,0,0-.33.3c1.91,3.23,6.87,9.43,12.62,15.8S39.84,28.08,42.86,30.31a.23.23,0,0,0,.14,0,.22.22,0,0,0,.15-.06A.24.24,0,0,0,43.2,30Z"/></svg>